<?xml version="1.0" encoding="UTF-8"?>
<svg width="588px" height="723px" viewBox="0 0 588 723" version="1.1" xmlns="http://www.w3.org/2000/svg" xmlns:xlink="http://www.w3.org/1999/xlink">
    <!-- Generator: Sketch 42 (36781) - http://www.bohemiancoding.com/sketch -->
    <title>Blank Avatar</title>
    <desc>Created with Sketch.</desc>
    <defs>
        <path d="M196.757636,0.961651917 L389.331541,0.961651917 C389.331541,0.961651917 388.073428,111.416382 389.331541,126.629325 C389.944912,134.046138 399.935664,250.718098 399.935664,250.718098 C399.935664,250.718098 365.742619,267.888552 293.702497,267.888552 C221.662374,267.888552 187.469329,253.341456 187.469329,253.341456 C187.469329,253.341456 194.84631,149.740848 196.757636,126.629325 C201.392563,70.5843501 196.757636,0.961651917 196.757636,0.961651917 Z" id="path-1"></path>
        <mask id="mask-2" maskContentUnits="userSpaceOnUse" maskUnits="objectBoundingBox" x="0" y="0" width="212.466335" height="266.9269" fill="white">
            <use xlink:href="#path-1"></use>
        </mask>
    </defs>
    <g id="Page-1" stroke="none" stroke-width="1" fill="none" fill-rule="evenodd">
        <g id="Blank-Avatar" transform="translate(1.000000, 0.000000)">
            <g id="shoulders-and-neck" transform="translate(0.000000, 264.000000)" stroke="#979797">
                <path d="M292.889871,458 C610.201399,458 585.322598,458 585.322598,340.395544 C585.322598,222.791087 454.396006,163.274336 292.889871,163.274336 C131.383735,163.274336 0.457143558,222.791087 0.457143558,340.395544 C0.457143558,458 -24.4216574,458 292.889871,458 Z" id="shoulders" fill="#B9B7B7"></path>
                <use id="neck" mask="url(#mask-2)" stroke-width="2" fill="#EBECE9" xlink:href="#path-1"></use>
                <path d="M194.651678,167.545723 C165.483117,178.468735 145.149091,194.197492 145.149091,211.544038 C145.149091,244.57034 211.090221,271.343448 292.432727,271.343448 C373.775234,271.343448 439.716364,244.57034 439.716364,211.544038 C439.716364,194.140678 421.405759,178.473712 392.179795,167.545723 C392.399968,170.057161 392.665704,173.083691 392.966826,176.510082 C401.318872,183.034828 406.051532,190.481769 406.051532,198.388168 C406.051532,224.148684 355.810671,245.031708 293.835429,245.031708 C231.860186,245.031708 181.619325,224.148684 181.619325,198.388168 C181.619325,191.517569 187.290397,187.146485 193.707554,181.273464 C194.038701,176.992267 194.387319,170.86059 194.651678,167.545723 Z" id="crew-neck" fill="#D8D8D8"></path>
            </g>
            <g id="head" transform="translate(102.000000, 0.000000)">
                <path d="M286.060236,373.700579 C259.031121,398.911016 225.76731,413.335317 190.895167,413.335317 C156.037137,413.335317 123.920949,399.543453 96.8984028,374.351396 C96.6885559,378.631357 96.0295884,385.281633 95.6245853,389.234888 C123.736264,408.669219 156.322892,417.181475 190.847691,417.181475 C225.171969,417.181475 258.062083,408.460587 286.060236,389.234888 C285.950711,385.91807 286.112019,378.993107 286.060236,373.700579 Z" id="neck-shading" fill="#DEDDDD"></path>
                <path d="M190.898182,413.335317 C286.387211,413.335317 363.796364,302.808706 363.796364,180.729339 C363.796364,58.6499718 286.387211,15 190.898182,15 C95.4091527,15 18,58.6499718 18,180.729339 C18,302.808706 95.4091527,413.335317 190.898182,413.335317 Z" stroke="#979797" fill="#EBECE9"></path>
                <path d="M122.092322,86.1590622 C96.2935413,86.1590622 100.136522,105.769902 89.9718845,132.615146 C82.7300776,151.741068 56.1537642,158.83082 40.8418742,192.247372 C25.5299842,225.663925 23.5115192,191.841293 37.453965,275.090603 C15.1401222,252.842966 8.33735148,223.079672 0.0468115248,181.426702 C0.0468115248,122.718315 -4.76653209,88.4630125 83.2234309,33.4611919 C171.213394,-21.5406288 274.122204,-3.22912987 330.691832,48.5294891 C405.073109,116.584952 381.429688,203.752631 360.100434,247.549376 C355.713026,203.752631 359.169309,152.558387 344.683058,137.545301 C241.368714,48.6120319 148.338628,86.1590622 122.092322,86.1590622 Z" id="hair" fill="#D1D1D1"></path>
            </g>
        </g>
    </g>
</svg>